<svg version="1.1" xmlns="http://www.w3.org/2000/svg" xmlns:xlink="http://www.w3.org/1999/xlink" width="51.83279" height="77.325" viewBox="0,0,51.83279,77.325"><g transform="translate(-214.0836,-141.27499)"><g data-paper-data="{&quot;isPaintingLayer&quot;:true}" fill="#000000" fill-rule="evenodd" stroke="#000000" stroke-width="0.25" stroke-linecap="round" stroke-linejoin="miter" stroke-miterlimit="10" stroke-dasharray="" stroke-dashoffset="0" style="mix-blend-mode: normal"><path d="M252.0264,178.96899c7.929,2.595 13.765,8.541 13.765,17.931c0,13.9 -12.7,21.7 -27.5,21.7c-1.37657,0.00143 -2.75255,-0.05729 -4.124,-0.176c-7.599,-0.665 -13.563,-3.192 -18.076,-7.024c-0.10373,-0.08657 -0.20511,-0.17594 -0.304,-0.268c-1.711,-1.59 -1.972,-3.417 -1.069,-5.337c0.21739,-0.45447 0.47615,-0.88796 0.773,-1.295l2.5,-3.4c1.9,-2.6 4.3,-2.8 7,-0.9c3.5,2.5 7.3,4 11.5,4c0.56424,0.00047 1.12831,-0.02021 1.691,-0.062c5.935,-0.445 9.709,-3.31 9.709,-8.438c0.20442,-2.45624 -0.69926,-4.87536 -2.464,-6.596c-1.441,-1.298 -3.638,-2.266 -6.897,-2.865c-1.46868,-0.26081 -2.95058,-0.44075 -4.439,-0.539c-3.4,-0.3 -5.2,-1.9 -5.2,-5.1v-2.8c-0.00361,-0.47855 0.04298,-0.95617 0.139,-1.425c0.342,-1.606 1.307,-2.659 2.832,-3.224c0.68679,-0.24316 1.40261,-0.39479 2.129,-0.451c8.7,-1 11.6,-4.5 11.6,-9.5c0.00565,-0.7863 -0.07619,-1.57079 -0.244,-2.339c-0.591,-2.613 -2.247,-4.357 -4.858,-5.121c-1.10611,-0.30688 -2.25021,-0.45503 -3.398,-0.44c-2.86608,0.00411 -5.67536,0.79969 -8.118,2.299c-0.43533,0.25398 -0.86286,0.5211 -1.282,0.801c-0.24091,0.17042 -0.48914,0.33024 -0.744,0.479c-1.959,1.136 -3.701,1.139 -5.267,-0.157c-0.36361,-0.3061 -0.695,-0.64854 -0.989,-1.022l-2.6,-3.2c-1.777,-2.201 -1.979,-4.33 -0.301,-6.084c0.33372,-0.34325 0.70277,-0.65029 1.101,-0.916c5.7,-3.9 11.9,-6.1 19,-6.1c10.949,0 19.218,3.639 23.084,10.522c1.65569,3.06071 2.48819,6.49891 2.416,9.978c0.12499,4.97561 -2.05105,9.73095 -5.898,12.889c-1.80609,1.47508 -3.83106,2.65963 -6.002,3.511v0.5c0.1789,0.05451 0.35725,0.11085 0.535,0.169z"/></g></g></svg>