<svg xmlns="http://www.w3.org/2000/svg" viewBox="0 0 51.601 75.802" height="75.802" width="51.601"><g style="stroke:#000;stroke-width:0.25mm;fill:#000" fill="#000" stroke-width="0.25mm" stroke="#000" font-size="9pt" fill-rule="evenodd" stroke-linecap="round" id="svgGroup"><path d="M 0.001 69.301 L 0.001 70.801 A 6.412 6.412 0 0 0 0.322 72.904 C 0.971 74.778 2.588 75.801 5.001 75.801 L 46.601 75.801 A 6.412 6.412 0 0 0 48.703 75.48 C 50.578 74.831 51.601 73.214 51.601 70.801 L 51.601 65.801 A 6.412 6.412 0 0 0 51.28 63.699 C 50.63 61.824 49.013 60.801 46.601 60.801 L 38.001 60.801 A 49.875 49.875 0 0 0 35.714 60.86 C 33.122 60.981 30.077 61.271 27.442 61.591 A 123.756 123.756 0 0 0 25.801 61.801 C 37.201 50.301 48.201 36.201 48.201 23.401 A 24.638 24.638 0 0 0 45.442 11.682 C 42.379 5.954 36.936 2.047 29.98 0.611 A 30.566 30.566 0 0 0 23.801 0.001 A 34.639 34.639 0 0 0 15.89 0.845 A 30.024 30.024 0 0 0 2.701 7.901 A 7.181 7.181 0 0 0 1.766 8.981 C 0.496 10.809 0.708 12.721 2.261 14.529 A 8.568 8.568 0 0 0 2.701 15.001 L 5.301 17.601 A 7.591 7.591 0 0 0 6.42 18.498 C 8.351 19.746 10.306 19.461 12.401 17.701 A 14.22 14.22 0 0 1 20.671 13.925 A 11.348 11.348 0 0 1 21.401 13.901 A 10.989 10.989 0 0 1 25.94 14.79 C 28.15 15.786 29.73 17.605 30.522 20.18 A 14.354 14.354 0 0 1 31.101 24.401 C 31.101 32.299 24.458 41.548 13.696 52.555 A 320.491 320.491 0 0 1 2.801 63.101 A 9.788 9.788 0 0 0 1.295 64.769 C 0.501 65.91 0.106 67.14 0.019 68.641 A 11.484 11.484 0 0 0 0.001 69.301 Z"></path></g></svg>