<svg version="1.1" xmlns="http://www.w3.org/2000/svg" xmlns:xlink="http://www.w3.org/1999/xlink" width="51.45501" height="76.17296" viewBox="0,0,51.45501,76.17296"><g transform="translate(-214.20976,-141.91352)"><g data-paper-data="{&quot;isPaintingLayer&quot;:true}" fill="#000000" fill-rule="evenodd" stroke="#000000" stroke-width="0.25" stroke-linecap="round" stroke-linejoin="miter" stroke-miterlimit="10" stroke-dasharray="" stroke-dashoffset="0" style="mix-blend-mode: normal"><path d="M235.91577,169.10152c1.414,-0.495 2.726,-0.793 4.118,-0.943c0.8076,-0.08356 1.6191,-0.12361 2.431,-0.12c1.36423,-0.002 2.72702,0.08854 4.079,0.271c10.728,1.464 19.121,8.902 19.121,23.229c0.01563,2.75301 -0.35773,5.49443 -1.109,8.143c-3.43993,11.24622 -14.0408,18.75039 -25.791,18.257c-1.50188,0.00184 -3.00287,-0.0736 -4.497,-0.226c-3.161,-0.327 -6.023,-0.993 -8.623,-1.92c-3.33757,-1.19131 -6.46862,-2.89652 -9.28,-5.054c-0.06247,-0.04765 -0.12414,-0.09632 -0.185,-0.146c-2.096,-1.705 -2.338,-3.937 -1.071,-6.149c0.13972,-0.24272 0.29193,-0.47803 0.456,-0.705l2.3,-3.2c1.9,-2.7 4.2,-2.8 7,-0.9c3.3,2.4 7.1,3.9 11.3,3.9c7.2,0 11.7,-3.9 11.7,-11.6c0.01853,-1.54545 -0.20588,-3.08421 -0.665,-4.56c-1.475,-4.55 -5.287,-6.94 -10.235,-6.94c-0.01,-0.00001 -0.02,-0.00001 -0.03,0c-2.783,0.003 -4.578,0.404 -6.87,1.5c-2.21,1.105 -3.986,1.415 -5.943,0.501c-0.36697,-0.17343 -0.72031,-0.37433 -1.057,-0.601l-1.1,-0.7c-0.26671,-0.17328 -0.52407,-0.36054 -0.771,-0.561c-1.634,-1.331 -2.336,-2.979 -2.336,-5.23c-0.0001,-0.13636 0.00224,-0.27272 0.007,-0.409l1.4,-28c0.02368,-0.38523 0.07718,-0.76804 0.16,-1.145c0.533,-2.394 2.257,-3.755 5.04,-3.755h31.9c2.413,0 4.03,1.023 4.679,2.898c0.22324,0.67792 0.33173,1.38835 0.321,2.102v4.9c0,2.412 -1.023,4.029 -2.898,4.679c-0.67792,0.22324 -1.38835,0.33173 -2.102,0.321h-21.5l-1.1,12.6c0.37996,-0.15526 0.76374,-0.30097 1.151,-0.437z"/></g></g></svg>