<svg xmlns="http://www.w3.org/2000/svg" viewBox="0 0 47.001 74.501" height="74.501" width="47.001"><g style="stroke:#000;stroke-width:0.25mm;fill:#000" fill="#000" stroke-width="0.25mm" stroke="#000" font-size="9pt" fill-rule="evenodd" stroke-linecap="round" id="svgGroup"><path d="M 0.001 65.1 L 0.001 69.5 A 6.412 6.412 0 0 0 0.322 71.602 C 0.971 73.477 2.588 74.5 5.001 74.5 L 42.001 74.5 A 6.412 6.412 0 0 0 44.103 74.179 C 45.978 73.529 47.001 71.913 47.001 69.5 L 47.001 65.1 A 6.412 6.412 0 0 0 46.68 62.998 C 46.03 61.123 44.413 60.1 42.001 60.1 L 33.601 60.1 L 33.601 5 A 6.412 6.412 0 0 0 33.28 2.898 C 32.63 1.023 31.013 0 28.601 0 L 23.801 0 C 21.401 0 19.701 0.5 17.601 1.7 A 47.63 47.63 0 0 1 10.393 4.749 A 45.757 45.757 0 0 1 6.601 5.8 A 8.267 8.267 0 0 0 4.581 6.604 C 2.928 7.562 2.101 9.073 2.101 11.3 L 2.101 12.8 A 6.412 6.412 0 0 0 2.422 14.902 C 3.071 16.777 4.688 17.8 7.101 17.8 L 15.801 17.8 L 15.801 60.1 L 5.001 60.1 A 6.412 6.412 0 0 0 2.899 60.421 C 1.024 61.071 0.001 62.688 0.001 65.1 Z"></path></g></svg>