<svg xmlns="http://www.w3.org/2000/svg" viewBox="0 0 56.101 74.501" height="74.501" width="56.101"><g style="stroke:#000;stroke-width:0.25mm;fill:#000" fill="#000" stroke-width="0.25mm" stroke="#000" font-size="9pt" fill-rule="evenodd" stroke-linecap="round" id="svgGroup"><path d="M 5.001 55.901 L 31.301 55.901 L 31.301 69.501 A 6.412 6.412 0 0 0 31.622 71.603 C 32.271 73.478 33.888 74.501 36.301 74.501 L 42.901 74.501 A 6.412 6.412 0 0 0 45.003 74.18 C 46.878 73.53 47.901 71.913 47.901 69.501 L 47.901 55.901 L 52.001 55.901 A 4.186 4.186 0 0 0 54.015 55.435 C 55.359 54.709 56.101 53.151 56.101 50.901 L 56.101 47.401 A 6.412 6.412 0 0 0 55.78 45.299 C 55.13 43.424 53.513 42.401 51.101 42.401 L 47.901 42.401 L 47.901 5.001 A 6.412 6.412 0 0 0 47.58 2.899 C 46.93 1.024 45.313 0.001 42.901 0.001 L 29.901 0.001 A 7.566 7.566 0 0 0 27.442 0.376 C 25.982 0.874 24.831 1.872 23.901 3.401 L 1.701 40.701 A 17.204 17.204 0 0 0 1.114 41.813 C 0.47 43.16 0.13 44.415 0.031 45.92 A 14.997 14.997 0 0 0 0.001 46.901 L 0.001 50.901 A 6.412 6.412 0 0 0 0.322 53.003 C 0.971 54.878 2.588 55.901 5.001 55.901 Z M 31.301 31.501 L 31.301 42.401 L 17.001 42.401 L 25.501 27.701 C 27.601 23.501 29.601 19.201 31.501 14.901 L 31.901 14.901 C 31.713 19.394 31.351 25.904 31.305 30.573 A 95.385 95.385 0 0 0 31.301 31.501 Z"></path></g></svg>